<svg xmlns="http://www.w3.org/2000/svg" viewBox="0 0 288 336">
<path d="M80 240 C70 180,95 130,70 90 C55 65,30 55,5 55 C35 45,60 50,85 75 C70 45,55 25,25 20 C55 15,80 25,100 55 C105 25,120 5,155 5 C130 20,120 45,118 70 C140 40,170 25,210 25 L250 25 C270 25,285 40,285 60 C285 80,270 95,250 95 L155 95 C125 95,105 115,90 145 C85 180,90 210,80 240 Z" fill="#008a3d"/>
<path d="M118 25 C140 25,165 25,195 25 L250 25 C270 25,285 40,285 60 C285 80,270 95,250 95 L145 95 C120 95,100 110,90 130 C110 95,145 65,190 55 Z" fill="#B73336"/>
<path d="M110 120 C130 90,160 70,200 70 L230 70 C250 70,265 85,265 105 C265 125,250 140,230 140 L160 140 C145 140,135 150,135 165 L135 205 C135 225,120 240,100 240 C80 240,65 225,65 205 L65 165 C65 145,80 130,100 130 Z" fill="#B73336"/>
</svg>
